PathFileType	4	(X/Y/Z)	C:/Users/beibeiliu/ov580/test_trc/capture2\sequence.2_training_dense_left.trc
DataRate	CameraRate	NumFrames	NumMarkers	Units	OrigDataRate	OrigDataStartFrame	OrigNumFrames
120	120	11	19	mm	120	1	313
Frame#	Time	ThumbCMC			ThumbMCP			ThumbIP			ThumbTip			IndexMCP			IndexPIP			IndexTip			MiddleMCP			MiddlePIP			MiddleTip			RingMCP			RingPIP			RingTip			PinkyMCP			PinkyPIP			PinkyTip			BackHand1			BackHand2			BackHand3	
		X0	Y0	Z0	X1	Y1	Z1	X2	Y2	Z2	X3	Y3	Z3	X4	Y4	Z4	X5	Y5	Z5	X6	Y6	Z6	X7	Y7	Z7	X8	Y8	Z8	X9	Y9	Z9	X10	Y10	Z10	X11	Y11	Z11	X12	Y12	Z12	X13	Y13	Z13	X14	Y14	Z14	X15	Y15	Z15	X16	Y16	Z16	X17	Y17	Z17	X18	Y18	Z18	
0	0	-120.02	4.56801	-15.2033	-102.159	-10.6319	-27.7638	-79.4216	-16.4464	-42.8666	-61.9638	-23.2643	-59.3989	-123.612	8.40447	-91.8067	-115.318	2.64189	-115.126	-110.763	-2.66852	-144.852	-144.264	10.7017	-102.837	-143.414	6.77428	-129.132	-143.295	1.45145	-157.418	-163.996	7.87356	-103.003	-165.811	5.66564	-123.377	-166.895	3.07183	-149.529	-190.614	2.5144	-91.8853	-194.209	-0.72223	-109.432	-197.118	3.43219	-134.302	-171.83	22.6959	-56.1244	-178.041	29.1565	-22.5721	-144.357	26.4485	-36.0412	
1	0.00833333	-122.001	2.34054	-17.8603	-101.903	-11.4645	-29.1857	-85.2368	-18.9334	-45.8072	-64.2382	-25.9231	-60.0029	-124.958	7.90801	-93.427	-117.499	2.50399	-119.886	-114.143	-3.85027	-146.413	-144.303	9.67888	-105.426	-143.734	6.10928	-126.575	-144.538	1.03232	-157.476	-169.796	8.00383	-101.678	-166.151	4.29375	-123.88	-167.303	2.59381	-154.683	-189.184	1.46804	-87.9911	-195.916	-0.634901	-114.535	-200.795	4.28443	-132.726	-175.575	21.487	-52.6654	-177.162	29.0135	-25.1567	-144.021	24.2367	-37.5388	
2	0.0166667	-122.681	1.65247	-16.2581	-104.688	-12.0803	-27.6031	-81.0689	-20.3419	-47.5073	-68.1581	-26.0821	-57.7062	-119.66	6.46411	-96.2161	-118.46	1.77554	-117.806	-111.398	-2.83098	-141.891	-147.203	10.278	-102.543	-144.192	5.52187	-127.938	-141.862	1.0682	-155.647	-165.046	7.54701	-99.1981	-166.219	3.54205	-128.414	-168.342	1.92443	-153.847	-190.786	2.50578	-89.5647	-196.307	-1.48103	-112.271	-199.706	1.52181	-133.373	-176.108	22.1169	-53.4887	-176.559	27.223	-25.1552	-146.038	24.2098	-35.1749	
3	0.025	-118.503	1.48612	-20.365	-104.513	-12.8349	-31.0388	-83.3887	-20.0115	-46.3938	-67.7332	-25.8299	-55.9422	-122.619	6.55543	-96.2198	-113.867	1.77198	-120.498	-117.108	-2.56276	-141.849	-145.122	10.1263	-100.994	-144.449	5.50917	-130.211	-144.75	0.827406	-156.799	-164.441	7.68319	-101.851	-167.235	3.9398	-127.18	-166.444	2.24948	-148.694	-186.383	1.52365	-87.9954	-191.734	-0.148382	-111.895	-199.727	4.12863	-132.925	-173.965	20.6702	-55.9777	-180.005	27.7998	-26.9513	-143.974	24.2827	-38.0475	
4	0.0333333	-123.442	1.98163	-17.7186	-102.409	-12.6617	-32.1315	-81.1442	-19.5259	-43.8727	-64.3157	-25.8249	-55.9838	-120.348	7.76836	-92.5607	-116.149	3.2428	-116.092	-112.362	-1.62749	-141.032	-142.162	11.1002	-106.468	-141.333	4.73152	-132.117	-142.038	1.51468	-155.053	-169.277	7.27789	-101.505	-165.797	4.58227	-128.514	-168.117	1.85108	-153.49	-191.704	1.82842	-90.6595	-190.554	-0.867193	-110.638	-199.801	4.06829	-133.338	-174.704	22.5997	-55.7269	-174.149	28.2363	-27.6262	-144.813	23.7483	-38.1979	
5	0.0416667	-122.419	1.41873	-21.3669	-104.13	-12.3271	-31.5869	-82.7	-19.8248	-48.3396	-63.9662	-25.8715	-56.4918	-120.21	7.29551	-91.0096	-118.774	1.71886	-120.269	-113.546	-2.6742	-141.038	-146.804	9.87958	-105.567	-142.775	5.46405	-129.28	-145.491	0.547439	-156.32	-170.178	6.94837	-101.48	-169.395	3.75153	-128.271	-170.325	1.55787	-150.284	-189.692	2.38878	-90.0024	-191.287	-1.2615	-108.541	-200.599	1.41554	-132.661	-172.316	22.2896	-51.5973	-177.304	27.5422	-25.6997	-142.19	23.5583	-36.1453	
6	0.05	-120.189	1.42466	-20.3519	-101.824	-13.0312	-31.3888	-85.7156	-21.236	-44.3775	-67.0926	-26.0842	-56.7146	-123.524	6.80391	-96.5067	-116.155	1.66537	-115.587	-116.164	-3.13776	-141.605	-147.709	9.50879	-106.052	-142.982	5.12691	-126.842	-143.458	1.03854	-157.879	-165.755	6.53033	-98.7514	-168.59	3.08712	-125.144	-166.513	1.81887	-153.664	-192.09	1.62497	-90.2266	-194.348	-1.64723	-113.99	-200.625	1.78302	-134.148	-171.474	19.9185	-50.7984	-179.02	27.6973	-24.2248	-145.501	25.2536	-35.4679	
7	0.0583333	-120.962	2.37396	-16.0148	-103.258	-13.1636	-28.8974	-80.4015	-20.0753	-46.6806	-63.9112	-25.689	-54.9075	-122.092	7.41898	-95.3687	-114.549	0.65589	-120.298	-116.705	-2.3763	-142.027	-145.54	9.39004	-105.798	-143.77	4.74443	-127.992	-139.873	-0.0445931	-160.237	-165.059	7.03578	-100.303	-170.72	3.07527	-126.032	-169.394	0.977239	-150.459	-191.236	2.89342	-92.8457	-192.796	-1.3793	-110.563	-199.922	1.55132	-137.276	-176.248	20.96	-51.855	-178.073	27.5229	-26.2217	-141.828	25.8816	-36.1897	
8	0.0666667	-120.973	0.748666	-18.7829	-103.397	-14.0753	-31.9925	-85.2449	-20.9223	-47.046	-64.28	-26.4913	-59.998	-122.356	7.48723	-92.9719	-115.767	1.37587	-121.202	-110.98	-3.81019	-145.506	-145.265	10.0844	-102.354	-146.102	4.83597	-131.724	-142.835	0.406134	-157.725	-167.012	7.40911	-102.146	-170.183	3.64622	-125.466	-166.087	1.0494	-152.794	-191.64	2.35912	-88.2534	-192.897	-1.31141	-109.431	-200.91	1.8602	-134.909	-173.404	20.0393	-53.0055	-179.187	27.0427	-23.1735	-144.081	23.5191	-35.091	
9	0.075	-123.647	1.55764	-17.5731	-100.01	-13.2793	-29.6205	-81.5129	-19.5678	-43.1435	-68.3748	-27.3253	-57.8709	-121.377	7.32342	-93.8514	-119.054	2.814	-116.915	-115.226	-1.98109	-143.441	-143.752	10.2412	-104.474	-142.051	5.54847	-129.004	-142.026	0.391858	-155.98	-163.847	7.75436	-102.818	-171.176	4.45536	-123.843	-167.916	0.743471	-151.02	-187.268	1.61215	-87.5658	-194.305	-1.97729	-112.103	-198.985	0.299168	-134.111	-176.576	20.9116	-52.8179	-178.613	27.4025	-27.2031	-143.613	24.2889	-34.2437	
10	0.0833333	-121.063	2.69998	-18.8671	-102.082	-11.9331	-29.438	-82.1642	-19.5268	-45.1826	-64.2833	-25.623	-58.2533	-123.691	7.53192	-94.9331	-116.063	2.77132	-117.192	-115.259	-2.79069	-145.368	-144.932	10.6178	-105.865	-142.919	5.51656	-127.788	-145.436	0.771716	-156.032	-170.449	7.16777	-101.065	-170.356	4.45185	-124.035	-166.769	1.77914	-152.313	-187.462	1.27657	-87.8049	-193.552	-1.36616	-111.463	-198.898	-0.332086	-133.599	-176.735	20.7861	-52.2121	-178.303	25.9112	-27.6401	-145.806	25.3599	-35.6195	
